<svg xmlns="http://www.w3.org/2000/svg" version="1.1" width="240" height="510">
<circle cx="210.0" cy="30.0" r="14.0" stroke-width="3" stroke="black" fill="white"/>
<text x="210.0" y="30.0" font-size="14" style="text-anchor: middle;dominant-baseline: central;">9</text>
<line x1="204.80054" y1="42.998672" x2="195.19946" y2="67.00133" style="stroke:black;stroke-width:3"/>
<circle cx="190.0" cy="80.0" r="14.0" stroke-width="3" stroke="black" fill="white"/>
<text x="190.0" y="80.0" font-size="14" style="text-anchor: middle;dominant-baseline: central;">8</text>
<line x1="184.80054" y1="92.99867" x2="175.19946" y2="117.00133" style="stroke:black;stroke-width:3"/>
<circle cx="170.0" cy="130.0" r="14.0" stroke-width="3" stroke="black" fill="white"/>
<text x="170.0" y="130.0" font-size="14" style="text-anchor: middle;dominant-baseline: central;">7</text>
<line x1="164.80054" y1="142.99867" x2="155.19946" y2="167.00133" style="stroke:black;stroke-width:3"/>
<circle cx="150.0" cy="180.0" r="14.0" stroke-width="3" stroke="black" fill="white"/>
<text x="150.0" y="180.0" font-size="14" style="text-anchor: middle;dominant-baseline: central;">6</text>
<line x1="144.80054" y1="192.99867" x2="135.19946" y2="217.00133" style="stroke:black;stroke-width:3"/>
<circle cx="130.0" cy="230.0" r="14.0" stroke-width="3" stroke="black" fill="white"/>
<text x="130.0" y="230.0" font-size="14" style="text-anchor: middle;dominant-baseline: central;">5</text>
<line x1="124.80053" y1="242.99867" x2="115.19947" y2="267.0013" style="stroke:black;stroke-width:3"/>
<circle cx="110.0" cy="280.0" r="14.0" stroke-width="3" stroke="black" fill="white"/>
<text x="110.0" y="280.0" font-size="14" style="text-anchor: middle;dominant-baseline: central;">4</text>
<line x1="104.80053" y1="292.9987" x2="95.19947" y2="317.0013" style="stroke:black;stroke-width:3"/>
<circle cx="90.0" cy="330.0" r="14.0" stroke-width="3" stroke="black" fill="white"/>
<text x="90.0" y="330.0" font-size="14" style="text-anchor: middle;dominant-baseline: central;">3</text>
<line x1="84.80053" y1="342.9987" x2="75.19947" y2="367.0013" style="stroke:black;stroke-width:3"/>
<circle cx="70.0" cy="380.0" r="14.0" stroke-width="3" stroke="black" fill="white"/>
<text x="70.0" y="380.0" font-size="14" style="text-anchor: middle;dominant-baseline: central;">2</text>
<line x1="64.80053" y1="392.9987" x2="55.19947" y2="417.0013" style="stroke:black;stroke-width:3"/>
<circle cx="50.0" cy="430.0" r="14.0" stroke-width="3" stroke="black" fill="white"/>
<text x="50.0" y="430.0" font-size="14" style="text-anchor: middle;dominant-baseline: central;">1</text>
<line x1="44.80053" y1="442.9987" x2="35.19947" y2="467.0013" style="stroke:black;stroke-width:3"/>
<circle cx="30.0" cy="480.0" r="14.0" stroke-width="3" stroke="black" fill="white"/>
<text x="30.0" y="480.0" font-size="14" style="text-anchor: middle;dominant-baseline: central;">0</text>
</svg>

