<svg xmlns="http://www.w3.org/2000/svg" version="1.1" width="140" height="260">
<circle cx="90.0" cy="30.0" r="14.0" stroke-width="3" stroke="black" fill="white"/>
<text x="90.0" y="30.0" font-size="20" style="text-anchor: middle;dominant-baseline: central;">8</text>
<line x1="84.80053" y1="42.998672" x2="75.19947" y2="67.00133" style="stroke:black;stroke-width:3"/>
<circle cx="70.0" cy="80.0" r="14.0" stroke-width="3" stroke="black" fill="white"/>
<text x="70.0" y="80.0" font-size="20" style="text-anchor: middle;dominant-baseline: central;">5</text>
<line x1="64.80053" y1="92.99867" x2="55.19947" y2="117.00133" style="stroke:black;stroke-width:3"/>
<circle cx="50.0" cy="130.0" r="14.0" stroke-width="3" stroke="black" fill="white"/>
<text x="50.0" y="130.0" font-size="20" style="text-anchor: middle;dominant-baseline: central;">4</text>
<line x1="44.80053" y1="142.99867" x2="35.19947" y2="167.00133" style="stroke:black;stroke-width:3"/>
<circle cx="30.0" cy="180.0" r="14.0" stroke-width="3" stroke="black" fill="white"/>
<text x="30.0" y="180.0" font-size="20" style="text-anchor: middle;dominant-baseline: central;">1</text>
<line x1="35.19947" y1="192.99867" x2="44.80053" y2="217.00133" style="stroke:black;stroke-width:3"/>
<circle cx="50.0" cy="230.0" r="14.0" stroke-width="3" stroke="black" fill="white"/>
<text x="50.0" y="230.0" font-size="20" style="text-anchor: middle;dominant-baseline: central;">3</text>
<line x1="75.19947" y1="92.99867" x2="84.80053" y2="117.00133" style="stroke:black;stroke-width:3"/>
<circle cx="90.0" cy="130.0" r="14.0" stroke-width="3" stroke="black" fill="white"/>
<text x="90.0" y="130.0" font-size="20" style="text-anchor: middle;dominant-baseline: central;">6</text>
<line x1="95.19947" y1="142.99867" x2="104.80053" y2="167.00133" style="stroke:black;stroke-width:3"/>
<circle cx="110.0" cy="180.0" r="14.0" stroke-width="3" stroke="black" fill="white"/>
<text x="110.0" y="180.0" font-size="20" style="text-anchor: middle;dominant-baseline: central;">7</text>
<line x1="95.19947" y1="42.998672" x2="104.80053" y2="67.00133" style="stroke:black;stroke-width:3"/>
<circle cx="110.0" cy="80.0" r="14.0" stroke-width="3" stroke="black" fill="white"/>
<text x="110.0" y="80.0" font-size="20" style="text-anchor: middle;dominant-baseline: central;">9</text>
</svg>

