<svg xmlns="http://www.w3.org/2000/svg" version="1.1" width="1040" height="560">
<circle cx="565.0" cy="30.0" r="14.0" stroke-width="3" stroke="black" fill="white"/>
<text x="565.0" y="30.0" font-size="20" style="text-anchor: middle;dominant-baseline: central;">68</text>
<line x1="551.17865" y1="32.229256" x2="268.82138" y2="77.770744" style="stroke:black;stroke-width:3"/>
<circle cx="255.0" cy="80.0" r="14.0" stroke-width="3" stroke="black" fill="white"/>
<text x="255.0" y="80.0" font-size="20" style="text-anchor: middle;dominant-baseline: central;">8</text>
<line x1="241.39871" y1="83.31738" x2="63.601284" y2="126.68262" style="stroke:black;stroke-width:3"/>
<circle cx="50.0" cy="130.0" r="14.0" stroke-width="3" stroke="black" fill="white"/>
<text x="50.0" y="130.0" font-size="20" style="text-anchor: middle;dominant-baseline: central;">7</text>
<line x1="44.80053" y1="142.99867" x2="35.19947" y2="167.00133" style="stroke:black;stroke-width:3"/>
<circle cx="30.0" cy="180.0" r="14.0" stroke-width="3" stroke="black" fill="white"/>
<text x="30.0" y="180.0" font-size="20" style="text-anchor: middle;dominant-baseline: central;">0</text>
<line x1="35.19947" y1="192.99867" x2="44.80053" y2="217.00133" style="stroke:black;stroke-width:3"/>
<circle cx="50.0" cy="230.0" r="14.0" stroke-width="3" stroke="black" fill="white"/>
<text x="50.0" y="230.0" font-size="20" style="text-anchor: middle;dominant-baseline: central;">1</text>
<line x1="55.19947" y1="242.99867" x2="64.80053" y2="267.0013" style="stroke:black;stroke-width:3"/>
<circle cx="70.0" cy="280.0" r="14.0" stroke-width="3" stroke="black" fill="white"/>
<text x="70.0" y="280.0" font-size="20" style="text-anchor: middle;dominant-baseline: central;">3</text>
<line x1="64.80053" y1="292.9987" x2="55.19947" y2="317.0013" style="stroke:black;stroke-width:3"/>
<circle cx="50.0" cy="330.0" r="14.0" stroke-width="3" stroke="black" fill="white"/>
<text x="50.0" y="330.0" font-size="20" style="text-anchor: middle;dominant-baseline: central;">2</text>
<line x1="75.19947" y1="292.9987" x2="84.80053" y2="317.0013" style="stroke:black;stroke-width:3"/>
<circle cx="90.0" cy="330.0" r="14.0" stroke-width="3" stroke="black" fill="white"/>
<text x="90.0" y="330.0" font-size="20" style="text-anchor: middle;dominant-baseline: central;">6</text>
<line x1="84.80053" y1="342.9987" x2="75.19947" y2="367.0013" style="stroke:black;stroke-width:3"/>
<circle cx="70.0" cy="380.0" r="14.0" stroke-width="3" stroke="black" fill="white"/>
<text x="70.0" y="380.0" font-size="20" style="text-anchor: middle;dominant-baseline: central;">4</text>
<line x1="268.6013" y1="83.31738" x2="446.3987" y2="126.68262" style="stroke:black;stroke-width:3"/>
<circle cx="460.0" cy="130.0" r="14.0" stroke-width="3" stroke="black" fill="white"/>
<text x="460.0" y="130.0" font-size="20" style="text-anchor: middle;dominant-baseline: central;">51</text>
<line x1="446.87152" y1="134.8624" x2="338.12848" y2="175.1376" style="stroke:black;stroke-width:3"/>
<circle cx="325.0" cy="180.0" r="14.0" stroke-width="3" stroke="black" fill="white"/>
<text x="325.0" y="180.0" font-size="20" style="text-anchor: middle;dominant-baseline: central;">29</text>
<line x1="312.35995" y1="186.01907" x2="232.64005" y2="223.98093" style="stroke:black;stroke-width:3"/>
<circle cx="220.0" cy="230.0" r="14.0" stroke-width="3" stroke="black" fill="white"/>
<text x="220.0" y="230.0" font-size="20" style="text-anchor: middle;dominant-baseline: central;">19</text>
<line x1="210.10051" y1="239.89949" x2="179.89949" y2="270.1005" style="stroke:black;stroke-width:3"/>
<circle cx="170.0" cy="280.0" r="14.0" stroke-width="3" stroke="black" fill="white"/>
<text x="170.0" y="280.0" font-size="20" style="text-anchor: middle;dominant-baseline: central;">18</text>
<line x1="164.80054" y1="292.9987" x2="155.19946" y2="317.0013" style="stroke:black;stroke-width:3"/>
<circle cx="150.0" cy="330.0" r="14.0" stroke-width="3" stroke="black" fill="white"/>
<text x="150.0" y="330.0" font-size="20" style="text-anchor: middle;dominant-baseline: central;">13</text>
<line x1="141.25427" y1="340.93216" x2="118.74573" y2="369.06784" style="stroke:black;stroke-width:3"/>
<circle cx="110.0" cy="380.0" r="14.0" stroke-width="3" stroke="black" fill="white"/>
<text x="110.0" y="380.0" font-size="20" style="text-anchor: middle;dominant-baseline: central;">10</text>
<line x1="104.80053" y1="392.9987" x2="95.19947" y2="417.0013" style="stroke:black;stroke-width:3"/>
<circle cx="90.0" cy="430.0" r="14.0" stroke-width="3" stroke="black" fill="white"/>
<text x="90.0" y="430.0" font-size="20" style="text-anchor: middle;dominant-baseline: central;">9</text>
<line x1="115.19947" y1="392.9987" x2="124.80053" y2="417.0013" style="stroke:black;stroke-width:3"/>
<circle cx="130.0" cy="430.0" r="14.0" stroke-width="3" stroke="black" fill="white"/>
<text x="130.0" y="430.0" font-size="20" style="text-anchor: middle;dominant-baseline: central;">11</text>
<line x1="158.74573" y1="340.93216" x2="181.25427" y2="369.06784" style="stroke:black;stroke-width:3"/>
<circle cx="190.0" cy="380.0" r="14.0" stroke-width="3" stroke="black" fill="white"/>
<text x="190.0" y="380.0" font-size="20" style="text-anchor: middle;dominant-baseline: central;">17</text>
<line x1="184.80054" y1="392.9987" x2="175.19946" y2="417.0013" style="stroke:black;stroke-width:3"/>
<circle cx="170.0" cy="430.0" r="14.0" stroke-width="3" stroke="black" fill="white"/>
<text x="170.0" y="430.0" font-size="20" style="text-anchor: middle;dominant-baseline: central;">15</text>
<line x1="164.80054" y1="442.9987" x2="155.19946" y2="467.0013" style="stroke:black;stroke-width:3"/>
<circle cx="150.0" cy="480.0" r="14.0" stroke-width="3" stroke="black" fill="white"/>
<text x="150.0" y="480.0" font-size="20" style="text-anchor: middle;dominant-baseline: central;">14</text>
<line x1="175.19946" y1="442.9987" x2="184.80054" y2="467.0013" style="stroke:black;stroke-width:3"/>
<circle cx="190.0" cy="480.0" r="14.0" stroke-width="3" stroke="black" fill="white"/>
<text x="190.0" y="480.0" font-size="20" style="text-anchor: middle;dominant-baseline: central;">16</text>
<line x1="229.89949" y1="239.89949" x2="260.1005" y2="270.1005" style="stroke:black;stroke-width:3"/>
<circle cx="270.0" cy="280.0" r="14.0" stroke-width="3" stroke="black" fill="white"/>
<text x="270.0" y="280.0" font-size="20" style="text-anchor: middle;dominant-baseline: central;">25</text>
<line x1="264.80054" y1="292.9987" x2="255.19946" y2="317.0013" style="stroke:black;stroke-width:3"/>
<circle cx="250.0" cy="330.0" r="14.0" stroke-width="3" stroke="black" fill="white"/>
<text x="250.0" y="330.0" font-size="20" style="text-anchor: middle;dominant-baseline: central;">24</text>
<line x1="244.80054" y1="342.9987" x2="235.19946" y2="367.0013" style="stroke:black;stroke-width:3"/>
<circle cx="230.0" cy="380.0" r="14.0" stroke-width="3" stroke="black" fill="white"/>
<text x="230.0" y="380.0" font-size="20" style="text-anchor: middle;dominant-baseline: central;">23</text>
<line x1="224.80054" y1="392.9987" x2="215.19946" y2="417.0013" style="stroke:black;stroke-width:3"/>
<circle cx="210.0" cy="430.0" r="14.0" stroke-width="3" stroke="black" fill="white"/>
<text x="210.0" y="430.0" font-size="20" style="text-anchor: middle;dominant-baseline: central;">20</text>
<line x1="215.19946" y1="442.9987" x2="224.80054" y2="467.0013" style="stroke:black;stroke-width:3"/>
<circle cx="230.0" cy="480.0" r="14.0" stroke-width="3" stroke="black" fill="white"/>
<text x="230.0" y="480.0" font-size="20" style="text-anchor: middle;dominant-baseline: central;">21</text>
<line x1="275.19946" y1="292.9987" x2="284.80054" y2="317.0013" style="stroke:black;stroke-width:3"/>
<circle cx="290.0" cy="330.0" r="14.0" stroke-width="3" stroke="black" fill="white"/>
<text x="290.0" y="330.0" font-size="20" style="text-anchor: middle;dominant-baseline: central;">26</text>
<line x1="295.19946" y1="342.9987" x2="304.80054" y2="367.0013" style="stroke:black;stroke-width:3"/>
<circle cx="310.0" cy="380.0" r="14.0" stroke-width="3" stroke="black" fill="white"/>
<text x="310.0" y="380.0" font-size="20" style="text-anchor: middle;dominant-baseline: central;">27</text>
<line x1="315.19946" y1="392.9987" x2="324.80054" y2="417.0013" style="stroke:black;stroke-width:3"/>
<circle cx="330.0" cy="430.0" r="14.0" stroke-width="3" stroke="black" fill="white"/>
<text x="330.0" y="430.0" font-size="20" style="text-anchor: middle;dominant-baseline: central;">28</text>
<line x1="337.64005" y1="186.01907" x2="417.35995" y2="223.98093" style="stroke:black;stroke-width:3"/>
<circle cx="430.0" cy="230.0" r="14.0" stroke-width="3" stroke="black" fill="white"/>
<text x="430.0" y="230.0" font-size="20" style="text-anchor: middle;dominant-baseline: central;">39</text>
<line x1="421.25427" y1="240.93216" x2="398.74573" y2="269.06784" style="stroke:black;stroke-width:3"/>
<circle cx="390.0" cy="280.0" r="14.0" stroke-width="3" stroke="black" fill="white"/>
<text x="390.0" y="280.0" font-size="20" style="text-anchor: middle;dominant-baseline: central;">36</text>
<line x1="384.80054" y1="292.9987" x2="375.19946" y2="317.0013" style="stroke:black;stroke-width:3"/>
<circle cx="370.0" cy="330.0" r="14.0" stroke-width="3" stroke="black" fill="white"/>
<text x="370.0" y="330.0" font-size="20" style="text-anchor: middle;dominant-baseline: central;">33</text>
<line x1="364.80054" y1="342.9987" x2="355.19946" y2="367.0013" style="stroke:black;stroke-width:3"/>
<circle cx="350.0" cy="380.0" r="14.0" stroke-width="3" stroke="black" fill="white"/>
<text x="350.0" y="380.0" font-size="20" style="text-anchor: middle;dominant-baseline: central;">30</text>
<line x1="355.19946" y1="392.9987" x2="364.80054" y2="417.0013" style="stroke:black;stroke-width:3"/>
<circle cx="370.0" cy="430.0" r="14.0" stroke-width="3" stroke="black" fill="white"/>
<text x="370.0" y="430.0" font-size="20" style="text-anchor: middle;dominant-baseline: central;">32</text>
<line x1="364.80054" y1="442.9987" x2="355.19946" y2="467.0013" style="stroke:black;stroke-width:3"/>
<circle cx="350.0" cy="480.0" r="14.0" stroke-width="3" stroke="black" fill="white"/>
<text x="350.0" y="480.0" font-size="20" style="text-anchor: middle;dominant-baseline: central;">31</text>
<line x1="375.19946" y1="342.9987" x2="384.80054" y2="367.0013" style="stroke:black;stroke-width:3"/>
<circle cx="390.0" cy="380.0" r="14.0" stroke-width="3" stroke="black" fill="white"/>
<text x="390.0" y="380.0" font-size="20" style="text-anchor: middle;dominant-baseline: central;">34</text>
<line x1="395.19946" y1="392.9987" x2="404.80054" y2="417.0013" style="stroke:black;stroke-width:3"/>
<circle cx="410.0" cy="430.0" r="14.0" stroke-width="3" stroke="black" fill="white"/>
<text x="410.0" y="430.0" font-size="20" style="text-anchor: middle;dominant-baseline: central;">35</text>
<line x1="395.19946" y1="292.9987" x2="404.80054" y2="317.0013" style="stroke:black;stroke-width:3"/>
<circle cx="410.0" cy="330.0" r="14.0" stroke-width="3" stroke="black" fill="white"/>
<text x="410.0" y="330.0" font-size="20" style="text-anchor: middle;dominant-baseline: central;">37</text>
<line x1="438.74573" y1="240.93216" x2="461.25427" y2="269.06784" style="stroke:black;stroke-width:3"/>
<circle cx="470.0" cy="280.0" r="14.0" stroke-width="3" stroke="black" fill="white"/>
<text x="470.0" y="280.0" font-size="20" style="text-anchor: middle;dominant-baseline: central;">40</text>
<line x1="475.19946" y1="292.9987" x2="484.80054" y2="317.0013" style="stroke:black;stroke-width:3"/>
<circle cx="490.0" cy="330.0" r="14.0" stroke-width="3" stroke="black" fill="white"/>
<text x="490.0" y="330.0" font-size="20" style="text-anchor: middle;dominant-baseline: central;">44</text>
<line x1="484.80054" y1="342.9987" x2="475.19946" y2="367.0013" style="stroke:black;stroke-width:3"/>
<circle cx="470.0" cy="380.0" r="14.0" stroke-width="3" stroke="black" fill="white"/>
<text x="470.0" y="380.0" font-size="20" style="text-anchor: middle;dominant-baseline: central;">43</text>
<line x1="464.80054" y1="392.9987" x2="455.19946" y2="417.0013" style="stroke:black;stroke-width:3"/>
<circle cx="450.0" cy="430.0" r="14.0" stroke-width="3" stroke="black" fill="white"/>
<text x="450.0" y="430.0" font-size="20" style="text-anchor: middle;dominant-baseline: central;">41</text>
<line x1="455.19946" y1="442.9987" x2="464.80054" y2="467.0013" style="stroke:black;stroke-width:3"/>
<circle cx="470.0" cy="480.0" r="14.0" stroke-width="3" stroke="black" fill="white"/>
<text x="470.0" y="480.0" font-size="20" style="text-anchor: middle;dominant-baseline: central;">42</text>
<line x1="495.19946" y1="342.9987" x2="504.80054" y2="367.0013" style="stroke:black;stroke-width:3"/>
<circle cx="510.0" cy="380.0" r="14.0" stroke-width="3" stroke="black" fill="white"/>
<text x="510.0" y="380.0" font-size="20" style="text-anchor: middle;dominant-baseline: central;">47</text>
<line x1="504.80054" y1="392.9987" x2="495.19946" y2="417.0013" style="stroke:black;stroke-width:3"/>
<circle cx="490.0" cy="430.0" r="14.0" stroke-width="3" stroke="black" fill="white"/>
<text x="490.0" y="430.0" font-size="20" style="text-anchor: middle;dominant-baseline: central;">46</text>
<line x1="515.19946" y1="392.9987" x2="524.80054" y2="417.0013" style="stroke:black;stroke-width:3"/>
<circle cx="530.0" cy="430.0" r="14.0" stroke-width="3" stroke="black" fill="white"/>
<text x="530.0" y="430.0" font-size="20" style="text-anchor: middle;dominant-baseline: central;">50</text>
<line x1="524.80054" y1="442.9987" x2="515.19946" y2="467.0013" style="stroke:black;stroke-width:3"/>
<circle cx="510.0" cy="480.0" r="14.0" stroke-width="3" stroke="black" fill="white"/>
<text x="510.0" y="480.0" font-size="20" style="text-anchor: middle;dominant-baseline: central;">49</text>
<line x1="504.80054" y1="492.9987" x2="495.19946" y2="517.00134" style="stroke:black;stroke-width:3"/>
<circle cx="490.0" cy="530.0" r="14.0" stroke-width="3" stroke="black" fill="white"/>
<text x="490.0" y="530.0" font-size="20" style="text-anchor: middle;dominant-baseline: central;">48</text>
<line x1="473.12848" y1="134.8624" x2="581.8715" y2="175.1376" style="stroke:black;stroke-width:3"/>
<circle cx="595.0" cy="180.0" r="14.0" stroke-width="3" stroke="black" fill="white"/>
<text x="595.0" y="180.0" font-size="20" style="text-anchor: middle;dominant-baseline: central;">55</text>
<line x1="588.739" y1="192.52197" x2="576.261" y2="217.47803" style="stroke:black;stroke-width:3"/>
<circle cx="570.0" cy="230.0" r="14.0" stroke-width="3" stroke="black" fill="white"/>
<text x="570.0" y="230.0" font-size="20" style="text-anchor: middle;dominant-baseline: central;">52</text>
<line x1="575.19946" y1="242.99867" x2="584.80054" y2="267.0013" style="stroke:black;stroke-width:3"/>
<circle cx="590.0" cy="280.0" r="14.0" stroke-width="3" stroke="black" fill="white"/>
<text x="590.0" y="280.0" font-size="20" style="text-anchor: middle;dominant-baseline: central;">54</text>
<line x1="584.80054" y1="292.9987" x2="575.19946" y2="317.0013" style="stroke:black;stroke-width:3"/>
<circle cx="570.0" cy="330.0" r="14.0" stroke-width="3" stroke="black" fill="white"/>
<text x="570.0" y="330.0" font-size="20" style="text-anchor: middle;dominant-baseline: central;">53</text>
<line x1="601.261" y1="192.52197" x2="613.739" y2="217.47803" style="stroke:black;stroke-width:3"/>
<circle cx="620.0" cy="230.0" r="14.0" stroke-width="3" stroke="black" fill="white"/>
<text x="620.0" y="230.0" font-size="20" style="text-anchor: middle;dominant-baseline: central;">56</text>
<line x1="625.19946" y1="242.99867" x2="634.80054" y2="267.0013" style="stroke:black;stroke-width:3"/>
<circle cx="640.0" cy="280.0" r="14.0" stroke-width="3" stroke="black" fill="white"/>
<text x="640.0" y="280.0" font-size="20" style="text-anchor: middle;dominant-baseline: central;">60</text>
<line x1="632.79706" y1="292.0049" x2="617.20294" y2="317.9951" style="stroke:black;stroke-width:3"/>
<circle cx="610.0" cy="330.0" r="14.0" stroke-width="3" stroke="black" fill="white"/>
<text x="610.0" y="330.0" font-size="20" style="text-anchor: middle;dominant-baseline: central;">59</text>
<line x1="604.80054" y1="342.9987" x2="595.19946" y2="367.0013" style="stroke:black;stroke-width:3"/>
<circle cx="590.0" cy="380.0" r="14.0" stroke-width="3" stroke="black" fill="white"/>
<text x="590.0" y="380.0" font-size="20" style="text-anchor: middle;dominant-baseline: central;">58</text>
<line x1="584.80054" y1="392.9987" x2="575.19946" y2="417.0013" style="stroke:black;stroke-width:3"/>
<circle cx="570.0" cy="430.0" r="14.0" stroke-width="3" stroke="black" fill="white"/>
<text x="570.0" y="430.0" font-size="20" style="text-anchor: middle;dominant-baseline: central;">57</text>
<line x1="647.20294" y1="292.0049" x2="662.79706" y2="317.9951" style="stroke:black;stroke-width:3"/>
<circle cx="670.0" cy="330.0" r="14.0" stroke-width="3" stroke="black" fill="white"/>
<text x="670.0" y="330.0" font-size="20" style="text-anchor: middle;dominant-baseline: central;">64</text>
<line x1="661.2543" y1="340.93216" x2="638.7457" y2="369.06784" style="stroke:black;stroke-width:3"/>
<circle cx="630.0" cy="380.0" r="14.0" stroke-width="3" stroke="black" fill="white"/>
<text x="630.0" y="380.0" font-size="20" style="text-anchor: middle;dominant-baseline: central;">62</text>
<line x1="624.80054" y1="392.9987" x2="615.19946" y2="417.0013" style="stroke:black;stroke-width:3"/>
<circle cx="610.0" cy="430.0" r="14.0" stroke-width="3" stroke="black" fill="white"/>
<text x="610.0" y="430.0" font-size="20" style="text-anchor: middle;dominant-baseline: central;">61</text>
<line x1="635.19946" y1="392.9987" x2="644.80054" y2="417.0013" style="stroke:black;stroke-width:3"/>
<circle cx="650.0" cy="430.0" r="14.0" stroke-width="3" stroke="black" fill="white"/>
<text x="650.0" y="430.0" font-size="20" style="text-anchor: middle;dominant-baseline: central;">63</text>
<line x1="678.7457" y1="340.93216" x2="701.2543" y2="369.06784" style="stroke:black;stroke-width:3"/>
<circle cx="710.0" cy="380.0" r="14.0" stroke-width="3" stroke="black" fill="white"/>
<text x="710.0" y="380.0" font-size="20" style="text-anchor: middle;dominant-baseline: central;">66</text>
<line x1="704.80054" y1="392.9987" x2="695.19946" y2="417.0013" style="stroke:black;stroke-width:3"/>
<circle cx="690.0" cy="430.0" r="14.0" stroke-width="3" stroke="black" fill="white"/>
<text x="690.0" y="430.0" font-size="20" style="text-anchor: middle;dominant-baseline: central;">65</text>
<line x1="715.19946" y1="392.9987" x2="724.80054" y2="417.0013" style="stroke:black;stroke-width:3"/>
<circle cx="730.0" cy="430.0" r="14.0" stroke-width="3" stroke="black" fill="white"/>
<text x="730.0" y="430.0" font-size="20" style="text-anchor: middle;dominant-baseline: central;">67</text>
<line x1="578.82135" y1="32.229256" x2="861.17865" y2="77.770744" style="stroke:black;stroke-width:3"/>
<circle cx="875.0" cy="80.0" r="14.0" stroke-width="3" stroke="black" fill="white"/>
<text x="875.0" y="80.0" font-size="20" style="text-anchor: middle;dominant-baseline: central;">69</text>
<line x1="880.19946" y1="92.99867" x2="889.80054" y2="117.00133" style="stroke:black;stroke-width:3"/>
<circle cx="895.0" cy="130.0" r="14.0" stroke-width="3" stroke="black" fill="white"/>
<text x="895.0" y="130.0" font-size="20" style="text-anchor: middle;dominant-baseline: central;">79</text>
<line x1="883.90326" y1="138.53595" x2="841.09674" y2="171.46405" style="stroke:black;stroke-width:3"/>
<circle cx="830.0" cy="180.0" r="14.0" stroke-width="3" stroke="black" fill="white"/>
<text x="830.0" y="180.0" font-size="20" style="text-anchor: middle;dominant-baseline: central;">77</text>
<line x1="824.80054" y1="192.99867" x2="815.19946" y2="217.00133" style="stroke:black;stroke-width:3"/>
<circle cx="810.0" cy="230.0" r="14.0" stroke-width="3" stroke="black" fill="white"/>
<text x="810.0" y="230.0" font-size="20" style="text-anchor: middle;dominant-baseline: central;">76</text>
<line x1="804.80054" y1="242.99867" x2="795.19946" y2="267.0013" style="stroke:black;stroke-width:3"/>
<circle cx="790.0" cy="280.0" r="14.0" stroke-width="3" stroke="black" fill="white"/>
<text x="790.0" y="280.0" font-size="20" style="text-anchor: middle;dominant-baseline: central;">74</text>
<line x1="784.80054" y1="292.9987" x2="775.19946" y2="317.0013" style="stroke:black;stroke-width:3"/>
<circle cx="770.0" cy="330.0" r="14.0" stroke-width="3" stroke="black" fill="white"/>
<text x="770.0" y="330.0" font-size="20" style="text-anchor: middle;dominant-baseline: central;">72</text>
<line x1="764.80054" y1="342.9987" x2="755.19946" y2="367.0013" style="stroke:black;stroke-width:3"/>
<circle cx="750.0" cy="380.0" r="14.0" stroke-width="3" stroke="black" fill="white"/>
<text x="750.0" y="380.0" font-size="20" style="text-anchor: middle;dominant-baseline: central;">71</text>
<line x1="775.19946" y1="342.9987" x2="784.80054" y2="367.0013" style="stroke:black;stroke-width:3"/>
<circle cx="790.0" cy="380.0" r="14.0" stroke-width="3" stroke="black" fill="white"/>
<text x="790.0" y="380.0" font-size="20" style="text-anchor: middle;dominant-baseline: central;">73</text>
<line x1="795.19946" y1="292.9987" x2="804.80054" y2="317.0013" style="stroke:black;stroke-width:3"/>
<circle cx="810.0" cy="330.0" r="14.0" stroke-width="3" stroke="black" fill="white"/>
<text x="810.0" y="330.0" font-size="20" style="text-anchor: middle;dominant-baseline: central;">75</text>
<line x1="835.19946" y1="192.99867" x2="844.80054" y2="217.00133" style="stroke:black;stroke-width:3"/>
<circle cx="850.0" cy="230.0" r="14.0" stroke-width="3" stroke="black" fill="white"/>
<text x="850.0" y="230.0" font-size="20" style="text-anchor: middle;dominant-baseline: central;">78</text>
<line x1="906.09674" y1="138.53595" x2="948.90326" y2="171.46405" style="stroke:black;stroke-width:3"/>
<circle cx="960.0" cy="180.0" r="14.0" stroke-width="3" stroke="black" fill="white"/>
<text x="960.0" y="180.0" font-size="20" style="text-anchor: middle;dominant-baseline: central;">96</text>
<line x1="950.1005" y1="189.89949" x2="919.8995" y2="220.10051" style="stroke:black;stroke-width:3"/>
<circle cx="910.0" cy="230.0" r="14.0" stroke-width="3" stroke="black" fill="white"/>
<text x="910.0" y="230.0" font-size="20" style="text-anchor: middle;dominant-baseline: central;">93</text>
<line x1="901.2543" y1="240.93216" x2="878.7457" y2="269.06784" style="stroke:black;stroke-width:3"/>
<circle cx="870.0" cy="280.0" r="14.0" stroke-width="3" stroke="black" fill="white"/>
<text x="870.0" y="280.0" font-size="20" style="text-anchor: middle;dominant-baseline: central;">86</text>
<line x1="864.80054" y1="292.9987" x2="855.19946" y2="317.0013" style="stroke:black;stroke-width:3"/>
<circle cx="850.0" cy="330.0" r="14.0" stroke-width="3" stroke="black" fill="white"/>
<text x="850.0" y="330.0" font-size="20" style="text-anchor: middle;dominant-baseline: central;">84</text>
<line x1="844.80054" y1="342.9987" x2="835.19946" y2="367.0013" style="stroke:black;stroke-width:3"/>
<circle cx="830.0" cy="380.0" r="14.0" stroke-width="3" stroke="black" fill="white"/>
<text x="830.0" y="380.0" font-size="20" style="text-anchor: middle;dominant-baseline: central;">82</text>
<line x1="824.80054" y1="392.9987" x2="815.19946" y2="417.0013" style="stroke:black;stroke-width:3"/>
<circle cx="810.0" cy="430.0" r="14.0" stroke-width="3" stroke="black" fill="white"/>
<text x="810.0" y="430.0" font-size="20" style="text-anchor: middle;dominant-baseline: central;">80</text>
<line x1="815.19946" y1="442.9987" x2="824.80054" y2="467.0013" style="stroke:black;stroke-width:3"/>
<circle cx="830.0" cy="480.0" r="14.0" stroke-width="3" stroke="black" fill="white"/>
<text x="830.0" y="480.0" font-size="20" style="text-anchor: middle;dominant-baseline: central;">81</text>
<line x1="835.19946" y1="392.9987" x2="844.80054" y2="417.0013" style="stroke:black;stroke-width:3"/>
<circle cx="850.0" cy="430.0" r="14.0" stroke-width="3" stroke="black" fill="white"/>
<text x="850.0" y="430.0" font-size="20" style="text-anchor: middle;dominant-baseline: central;">83</text>
<line x1="855.19946" y1="342.9987" x2="864.80054" y2="367.0013" style="stroke:black;stroke-width:3"/>
<circle cx="870.0" cy="380.0" r="14.0" stroke-width="3" stroke="black" fill="white"/>
<text x="870.0" y="380.0" font-size="20" style="text-anchor: middle;dominant-baseline: central;">85</text>
<line x1="875.19946" y1="292.9987" x2="884.80054" y2="317.0013" style="stroke:black;stroke-width:3"/>
<circle cx="890.0" cy="330.0" r="14.0" stroke-width="3" stroke="black" fill="white"/>
<text x="890.0" y="330.0" font-size="20" style="text-anchor: middle;dominant-baseline: central;">87</text>
<line x1="895.19946" y1="342.9987" x2="904.80054" y2="367.0013" style="stroke:black;stroke-width:3"/>
<circle cx="910.0" cy="380.0" r="14.0" stroke-width="3" stroke="black" fill="white"/>
<text x="910.0" y="380.0" font-size="20" style="text-anchor: middle;dominant-baseline: central;">92</text>
<line x1="904.80054" y1="392.9987" x2="895.19946" y2="417.0013" style="stroke:black;stroke-width:3"/>
<circle cx="890.0" cy="430.0" r="14.0" stroke-width="3" stroke="black" fill="white"/>
<text x="890.0" y="430.0" font-size="20" style="text-anchor: middle;dominant-baseline: central;">89</text>
<line x1="884.80054" y1="442.9987" x2="875.19946" y2="467.0013" style="stroke:black;stroke-width:3"/>
<circle cx="870.0" cy="480.0" r="14.0" stroke-width="3" stroke="black" fill="white"/>
<text x="870.0" y="480.0" font-size="20" style="text-anchor: middle;dominant-baseline: central;">88</text>
<line x1="895.19946" y1="442.9987" x2="904.80054" y2="467.0013" style="stroke:black;stroke-width:3"/>
<circle cx="910.0" cy="480.0" r="14.0" stroke-width="3" stroke="black" fill="white"/>
<text x="910.0" y="480.0" font-size="20" style="text-anchor: middle;dominant-baseline: central;">90</text>
<line x1="915.19946" y1="492.9987" x2="924.80054" y2="517.00134" style="stroke:black;stroke-width:3"/>
<circle cx="930.0" cy="530.0" r="14.0" stroke-width="3" stroke="black" fill="white"/>
<text x="930.0" y="530.0" font-size="20" style="text-anchor: middle;dominant-baseline: central;">91</text>
<line x1="918.7457" y1="240.93216" x2="941.2543" y2="269.06784" style="stroke:black;stroke-width:3"/>
<circle cx="950.0" cy="280.0" r="14.0" stroke-width="3" stroke="black" fill="white"/>
<text x="950.0" y="280.0" font-size="20" style="text-anchor: middle;dominant-baseline: central;">95</text>
<line x1="944.80054" y1="292.9987" x2="935.19946" y2="317.0013" style="stroke:black;stroke-width:3"/>
<circle cx="930.0" cy="330.0" r="14.0" stroke-width="3" stroke="black" fill="white"/>
<text x="930.0" y="330.0" font-size="20" style="text-anchor: middle;dominant-baseline: central;">94</text>
<line x1="969.8995" y1="189.89949" x2="1000.1005" y2="220.10051" style="stroke:black;stroke-width:3"/>
<circle cx="1010.0" cy="230.0" r="14.0" stroke-width="3" stroke="black" fill="white"/>
<text x="1010.0" y="230.0" font-size="20" style="text-anchor: middle;dominant-baseline: central;">99</text>
<line x1="1004.80054" y1="242.99867" x2="995.19946" y2="267.0013" style="stroke:black;stroke-width:3"/>
<circle cx="990.0" cy="280.0" r="14.0" stroke-width="3" stroke="black" fill="white"/>
<text x="990.0" y="280.0" font-size="20" style="text-anchor: middle;dominant-baseline: central;">98</text>
<line x1="984.80054" y1="292.9987" x2="975.19946" y2="317.0013" style="stroke:black;stroke-width:3"/>
<circle cx="970.0" cy="330.0" r="14.0" stroke-width="3" stroke="black" fill="white"/>
<text x="970.0" y="330.0" font-size="20" style="text-anchor: middle;dominant-baseline: central;">97</text>
</svg>

